<svg viewBox="0 0 84 72" xmlns="http://www.w3.org/2000/svg" fill-rule="evenodd" clip-rule="evenodd"
     stroke-linecap="square" stroke-miterlimit="1.5" fill="none" stroke="#000" stroke-width="3.5">
  <path
    d="M3.696 29.281L29.152 3.825 41.88 16.553 16.424 42.009 3.696 29.281zM67.336 42.009L41.88 16.553 54.608 3.825l25.456 25.456-12.728 12.728z"/>
  <path d="M29.152 29.281L41.88 42.009l12.728-12.728L41.88 16.553 29.152 29.281z"/>
  <path
    d="M16.424 42.009l12.728 12.728L41.88 42.009 29.152 29.281 16.424 42.009zM41.88 42.009l12.728 12.728 12.728-12.728-12.728-12.728L41.88 42.009z"/>
  <path d="M29.152 54.737L41.88 67.464l12.728-12.727L41.88 42.009 29.152 54.737z"/>
</svg>
